<svg width="60" height="60" fill="none" xmlns="http://www.w3.org/2000/svg"><g clip-path="url(#clip0_31_47)"><path d="M54.03 28.35l.01-4.947-17.406-.035-.01 4.946 17.407.035zm-.016 8.243l.01-4.946-17.406-.036-.01 4.946 17.406.036zm-30.7-8.306l.01-4.947-17.407-.035-.01 4.946 17.407.035zm-.017 8.243l.01-4.946-17.406-.036-.01 4.947 17.406.035zm5.12.012l-4.915-.012-.042 17.518 4.915.012.042-17.518zm8.191.02l-4.915-.012-.042 17.518 4.915.012.042-17.518z" fill="#FF9100"/><path d="M28.274 5.835l-4.915-.012-.042 17.517 4.915.012.042-17.517zm8.191.019l-4.915-.012-.041 17.518 4.914.012.042-17.518z" fill="#FF9100"/><path d="M5.89 36.494l-.035 17.518L.122 54l.035-17.517 5.734.011z" fill="#D46363"/><path d="M23.455 59.819L.11 59.77.122 54l23.345.047-.012 5.77zm13.119-5.802l17.407.036-.012 5.77-17.407-.035.012-5.77z" fill="#D46363"/><path d="M59.75 36.34l-.047 23.495-5.734-.012.047-23.494 5.734.012z" fill="#D46363"/><path d="M54.04 23.403l.036-17.517 5.734.011-.035 17.518-5.734-.012z" fill="#D56363"/><path d="M36.477.079l23.345.048-.012 5.77-23.345-.047.012-5.771z" fill="#D56363"/><path d="M23.359 5.823L5.953 5.787l.011-5.77 17.407.035-.012 5.77zM.183 23.5L.231.004l5.733.012-.047 23.494-5.734-.012zm27.989 8.424a2.561 2.561 0 003.638-.05 2.6 2.6 0 00-.05-3.662 2.561 2.561 0 00-3.639.051 2.6 2.6 0 00.051 3.661z" fill="#D46363"/></g><defs><clipPath id="clip0_31_47"><path fill="#fff" d="M0 0h60v60H0z"/></clipPath></defs></svg>